<svg width="84" height="84" viewBox="0 0 84 84" fill="none" xmlns="http://www.w3.org/2000/svg">
<rect width="84" height="84" fill="#0D021E"/>
<path d="M41.9558 20.625C43.4725 19.7583 44.7942 19.65 45.9208 20.3C47.0475 20.95 47.6108 22.1417 47.6108 23.875V56.375L56.0608 51.5V12.5L61.7158 9.25V54.75L47.6108 62.875C46.1375 63.7417 44.8158 63.85 43.6458 63.2C42.5192 62.55 41.9558 61.3583 41.9558 59.625V27.125L33.5708 32V71L27.9158 74.25V28.75L41.9558 20.625ZM61.7158 9.25L56.0608 12.5L50.4058 9.25L56.0608 6L61.7158 9.25ZM56.0608 12.5V51.5L50.4058 48.25V9.25L56.0608 12.5ZM56.0608 51.5L47.6108 56.375L41.9558 53.125L50.4058 48.25L56.0608 51.5ZM41.9558 27.125V59.625C41.9558 61.3583 42.5192 62.55 43.6458 63.2L38.0558 59.95C36.9292 59.3 36.3658 58.1083 36.3658 56.375V23.875L41.9558 27.125ZM45.9208 20.3C44.7942 19.65 43.4725 19.7583 41.9558 20.625L27.9158 28.75L22.2608 25.5L36.3658 17.375C37.8392 16.5083 39.1392 16.4 40.2658 17.05L45.9208 20.3ZM27.9158 28.75V74.25L22.2608 71V25.5L27.9158 28.75Z" fill="#00AF81"/>
</svg>
